<svg width="380" height="203" viewBox="0 0 380 203" fill="none" xmlns="http://www.w3.org/2000/svg">
<g clip-path="url(#clip0_49_153)">
<path d="M163.105 24.0653H152.091C150.124 24.0653 148.525 22.4662 148.525 20.5008V3.56449C148.525 1.59914 150.124 0 152.091 0H163.105C165.071 0 166.671 1.59914 166.671 3.56449V20.5008C166.671 22.4662 165.071 24.0653 163.105 24.0653Z" fill="#E6E6E6"/>
<path d="M187.214 24.0653H176.199C174.233 24.0653 172.634 22.4662 172.634 20.5008V3.56449C172.634 1.59914 174.233 0 176.199 0H187.214C189.18 0 190.78 1.59914 190.78 3.56449V20.5008C190.78 22.4662 189.18 24.0653 187.214 24.0653Z" fill="#CCCCCC"/>
<path d="M212.904 24.0653H201.89C199.923 24.0653 198.324 22.4662 198.324 20.5008V3.56449C198.324 1.59914 199.923 0 201.89 0H212.904C214.87 0 216.47 1.59914 216.47 3.56449V20.5008C216.47 22.4662 214.87 24.0653 212.904 24.0653Z" fill="#E6E6E6"/>
<path d="M92.4096 79.0298C94.3183 77.0882 96.8676 76.4987 98.1036 77.7132C99.3395 78.9276 98.7939 81.4855 96.8843 83.4276C96.1322 84.2138 95.2026 84.8085 94.1733 85.162L85.9823 93.2866L82.2501 89.363L90.7212 81.7702C91.057 80.7351 91.6359 79.7953 92.4096 79.0298Z" fill="#A0616A"/>
<path d="M66.2136 72.3234L74.8017 91.368L88.5156 83.9477L93.4236 86.5515C93.4236 86.5515 82.2128 105.286 74.5367 103.154C66.8607 101.021 53.23 81.6828 55.6859 75.7145C58.1418 69.7461 66.2136 72.3234 66.2136 72.3234Z" fill="#3F3D56"/>
<path d="M305.721 8.52466H325.993L333.935 14.2805L313.229 15.4316L305.721 8.52466Z" fill="#E6E6E6"/>
<path d="M0 199.726C0 200.106 0.305196 200.411 0.685248 200.411H342.883C343.263 200.411 343.568 200.106 343.568 199.726C343.568 199.346 343.263 199.041 342.883 199.041H0.685248C0.305196 199.041 0 199.346 0 199.726Z" fill="#3F3D56"/>
<path d="M346.694 54.0109L354.672 57.7886C351.4 53.2238 348.58 46.0945 347.071 40.4215C344.515 45.706 340.395 52.1719 336.316 56.0342L344.748 53.8659C339.553 79.3199 320.01 97.5933 297.631 97.5933L297.314 98.5127C320.69 98.5127 341.389 80.4926 346.694 54.0109Z" fill="#3F3D56"/>
<path d="M182.012 40.7726L189.991 44.5504C186.718 39.9855 183.899 32.8562 182.389 27.1832C179.833 32.4677 175.713 38.9336 171.635 42.7959L180.067 40.6276C174.871 66.0816 155.329 84.355 132.95 84.355L132.633 85.2744C156.008 85.2744 176.707 67.2543 182.012 40.7726Z" fill="#3F3D56"/>
<path d="M304.38 117.372C303.248 116.023 301.892 115.107 300.674 114.755L286.352 98.5709C286.352 98.5709 285.156 83.5058 284.199 78.245C283.242 72.9842 276.783 74.419 276.783 74.419L277.5 89.484L281.567 105.745L298.326 119.967C298.619 120.5 298.978 121.033 299.407 121.545C301.446 123.972 304.212 125.006 305.585 123.854C306.959 122.701 306.419 119.799 304.38 117.372Z" fill="#FFB6B6"/>
<path d="M235.583 117.372C236.715 116.023 238.071 115.107 239.289 114.755L253.611 98.5709C253.611 98.5709 254.807 83.5058 255.764 78.245C256.721 72.9842 263.18 74.419 263.18 74.419L262.462 89.484L258.396 105.745L241.637 119.967C241.344 120.5 240.985 121.033 240.555 121.545C238.517 123.972 235.751 125.006 234.377 123.854C233.004 122.701 233.544 119.799 235.583 117.372Z" fill="#FFB6B6"/>
<path d="M267.094 72.3864L268.756 66.002L275.228 65.6908L277.164 74.4915L267.094 72.3864Z" fill="#FFB6B6"/>
<path opacity="0.1" d="M267.094 72.3864L268.756 66.002L275.228 65.6908L277.164 74.4915L267.094 72.3864Z" fill="black"/>
<path d="M250.567 176.98L244.505 176.634L245.3 195.231L249.408 195.465L250.567 176.98Z" fill="#FFB6B6"/>
<path d="M244.775 189.351L246.88 190.31L246.877 191.586C246.877 191.586 247.385 190.11 250.111 189.788L250.436 191.024C250.436 191.024 251.493 192.237 251.312 194.431L250.618 200.307L248.562 200.259L248.23 196.171C248.23 196.171 247.664 195.243 245.056 199.652C245.056 199.652 242.182 200.376 237.733 198.884C237.121 198.679 236.696 198.108 236.704 197.464C236.709 197.108 236.848 196.779 237.294 196.661C238.43 196.361 239.54 196.742 240.273 195.835C241.007 194.929 244.775 189.351 244.775 189.351Z" fill="#2F2E41"/>
<path d="M283.101 176.98L277.039 176.634L277.835 195.231L281.942 195.465L283.101 176.98Z" fill="#FFB6B6"/>
<path d="M277.309 189.351L279.414 190.31L279.411 191.586C279.411 191.586 279.919 190.11 282.645 189.788L282.971 191.024C282.971 191.024 284.028 192.237 283.846 194.431L283.153 200.307L281.097 200.259L280.765 196.171C280.765 196.171 280.198 195.243 277.59 199.652C277.59 199.652 274.717 200.376 270.267 198.884C269.655 198.679 269.231 198.108 269.239 197.464C269.243 197.108 269.382 196.779 269.829 196.661C270.965 196.361 272.074 196.742 272.808 195.835C273.541 194.929 277.309 189.351 277.309 189.351Z" fill="#2F2E41"/>
<path d="M272.07 69.7618C276.034 69.7618 279.247 66.5499 279.247 62.5879C279.247 58.6259 276.034 55.4141 272.07 55.4141C268.107 55.4141 264.894 58.6259 264.894 62.5879C264.894 66.5499 268.107 69.7618 272.07 69.7618Z" fill="#FFB6B6"/>
<path d="M276.14 63.7805C276.14 63.7805 272.985 58.6197 269.826 59.1893C266.668 59.7589 265.021 60.2732 265.021 60.2732C265.021 60.2732 263.735 56.1584 268.053 54.1843C268.053 54.1843 261.942 49.0698 268.455 45.7874C274.968 42.5051 279.021 45.6862 279.021 45.6862C279.021 45.6862 284.412 50.2561 278.435 54.4853C278.435 54.4853 283.608 60.3755 278.383 66.002C278.383 66.002 279.306 61.7178 278.051 62.5961C276.796 63.4744 276.14 63.7805 276.14 63.7805Z" fill="#2F2E41"/>
<path d="M276.902 72.8647L267.094 71.6691L259.559 77.7668C259.559 77.7668 255.811 88.2049 258.602 94.5058C258.669 94.6568 258.721 105.147 258.721 105.147H279.56C279.56 105.147 279.54 98.0068 280.336 95.4208C280.45 95.0514 280.58 94.7749 280.73 94.6254C281.926 93.4298 284.797 85.7777 283.361 82.4298C281.926 79.082 276.902 72.8647 276.902 72.8647Z" fill="#E6E6E6"/>
<path d="M258.602 104.669L245.444 146.516L242.574 179.516H250.588L257.406 148.907L266.795 131.189L276.065 181.907H284.154L283.959 113.277L279.543 104.669H258.602Z" fill="#2F2E41"/>
<path d="M269.768 156.125C287.537 156.125 301.941 141.727 301.941 123.965C301.941 106.204 287.537 91.8051 269.768 91.8051C251.999 91.8051 237.595 106.204 237.595 123.965C237.595 141.727 251.999 156.125 269.768 156.125Z" fill="#B4539A"/>
<path d="M62.4478 199.248L68.71 199.247L71.6889 175.103L62.4466 175.104L62.4478 199.248Z" fill="#A0616A"/>
<path d="M83.9027 199.106C84.0976 199.434 84.2005 200.494 84.2005 200.876C84.2005 202.049 83.249 203 82.0751 203H62.6821C61.8813 203 61.2321 202.351 61.2321 201.551V200.744C61.2321 200.744 60.2728 198.318 62.2479 195.328C62.2479 195.328 64.7027 197.669 68.3709 194.003L69.4526 192.044L77.2827 197.768L81.6228 198.302C82.5723 198.419 83.4142 198.284 83.9027 199.106Z" fill="#2F2E41"/>
<path d="M67.1864 73.5454L67.3131 65.1027L62.1046 61.8572L56.441 68.7822L67.1864 73.5454Z" fill="#A0616A"/>
<path opacity="0.1" d="M67.1864 73.5454L67.5235 65.313L62.1046 61.8572L63.9457 72.0451L67.1864 73.5454Z" fill="black"/>
<path d="M67.2026 67.7299C72.3185 67.7299 76.4657 63.5844 76.4657 58.4706C76.4657 53.3567 72.3185 49.2112 67.2026 49.2112C62.0868 49.2112 57.9396 53.3567 57.9396 58.4706C57.9396 63.5844 62.0868 67.7299 67.2026 67.7299Z" fill="#A0616A"/>
<path d="M79.8356 129.373L71.2066 188.069H60.3804L61.82 154.564L62.5777 136.947L60.3804 128.561C60.3804 128.561 59.3786 126.697 58.5347 124.438C57.5834 121.888 56.832 118.831 57.9475 117.382C58.3579 116.847 59.4249 116.452 60.875 116.157C61.7611 115.976 62.7923 115.835 63.9057 115.726C70.3079 115.093 79.4146 115.488 79.4146 115.488L79.6461 123.125L79.7745 127.389L79.8356 129.373Z" fill="#2F2E41"/>
<path d="M51.4169 196.377L57.6125 197.287L64.0732 173.833L54.9291 172.49L51.4169 196.377Z" fill="#A0616A"/>
<path d="M72.6642 199.356C72.8093 199.71 72.757 200.773 72.7014 201.15C72.5307 202.311 71.4508 203.114 70.2895 202.943L51.1027 200.124C50.3104 200.007 49.7626 199.271 49.8791 198.479L49.9965 197.68C49.9965 197.68 49.4003 195.141 51.7895 192.47C51.7895 192.47 53.8776 195.143 58.0403 192.049L59.3955 190.268L66.3094 197.07L70.5256 198.229C71.448 198.483 72.3006 198.472 72.6642 199.356Z" fill="#2F2E41"/>
<path d="M79.9714 119.585L78.7878 129.773L72.3334 151.243L61.7083 186.59L50.9985 185.017L60.6104 134.759L59.6587 126.141C59.6587 126.141 59.3488 125.284 58.9935 124.03C58.2882 121.549 57.4037 117.508 58.3768 115.447C58.5082 115.167 58.6732 114.924 58.8772 114.727C59.26 114.356 60.0379 114.131 61.0801 114.012C65.4363 113.519 74.4076 114.927 78.3997 115.618L79.9714 119.585Z" fill="#2F2E41"/>
<path d="M57.6318 66.9961L68.1549 72.0452C68.1549 72.0452 79.3094 105.075 79.3094 106.758C79.3094 108.441 82.4663 109.493 80.5722 111.386C78.678 113.279 84.0977 114.883 81.1774 116.395C78.2571 117.908 60.0397 126.18 58.014 125.434C52.427 123.377 58.2508 115.816 58.2508 115.816C58.2508 115.816 54.0539 112.438 54.6853 110.755C55.3167 109.072 50.897 76.8839 50.897 76.8839L57.6318 66.9961Z" fill="#3F3D56"/>
<path d="M66.637 60.6883L67.8284 63.0702C67.8284 63.0702 69.0198 58.7828 70.9261 57.8301C72.8323 56.8773 73.0706 55.4482 73.0706 55.4482C73.0706 55.4482 75.4535 58.5446 77.1215 57.8301C78.7894 57.1155 79.5043 56.6391 77.598 53.7809C75.6918 50.9226 76.1683 52.3517 76.1683 52.3517C76.1683 52.3517 74.5003 49.9698 74.7386 50.6844C74.9769 51.399 73.3089 48.7789 73.3089 49.4935C73.3089 50.208 72.1175 48.0643 72.1175 48.7789C72.1175 49.4935 67.1135 47.1116 67.8284 48.0643C68.5432 49.0171 63.5393 46.1588 61.1564 49.9698C58.7736 53.7809 55.4695 53.0761 56.645 55.4531C57.8204 57.8301 57.3439 64.2612 57.3439 64.2612H60.6301C60.6301 64.2612 64.0158 57.8301 66.637 60.6883Z" fill="#2F2E41"/>
<path d="M333.935 14.2804H314.358V33.8501H333.935V14.2804Z" fill="#E6E6E6"/>
<path d="M380 14.2804L380 33.8501H360.422C360.422 23.0493 369.195 14.2804 380 14.2804Z" fill="#E6E6E6"/>
<path d="M347.179 33.8502C352.267 33.8502 356.392 29.7271 356.392 24.6409C356.392 19.5548 352.267 15.4316 347.179 15.4316C342.091 15.4316 337.966 19.5548 337.966 24.6409C337.966 29.7271 342.091 33.8502 347.179 33.8502Z" fill="#CCCCCC"/>
<path d="M314.358 14.2805L305.721 8.52466V24.0653L314.358 33.8502" fill="#F2F2F2"/>
<path d="M176.247 7.9252L187.077 7.59791C187.83 7.57518 187.902 6.39903 187.143 6.42196L176.312 6.74925C175.56 6.77198 175.488 7.94814 176.247 7.9252Z" fill="white"/>
<path d="M176.247 11.876L187.077 11.5487C187.83 11.526 187.902 10.3498 187.143 10.3728L176.312 10.7001C175.56 10.7228 175.488 11.8989 176.247 11.876Z" fill="white"/>
<path d="M176.247 15.8267L187.077 15.4994C187.83 15.4767 187.902 14.3005 187.143 14.3235L176.312 14.6507C175.56 14.6735 175.488 15.8496 176.247 15.8267Z" fill="white"/>
<path d="M151.919 8.92685C153.714 6.74173 156.962 8.93452 159.074 9.3048C160.309 9.5214 161.584 9.40706 162.628 8.65839C163.551 7.99548 164.214 6.99759 164.389 5.86751C164.505 5.12133 163.363 4.79979 163.246 5.55243C163.081 6.61534 162.426 7.54615 161.429 7.98792C160.225 8.52109 158.845 8.09162 157.674 7.68425C155.586 6.95796 152.767 6.03598 151.081 8.08877C150.6 8.67375 151.434 9.51699 151.919 8.92685Z" fill="white"/>
<path d="M151.919 13.6677C153.714 11.4826 156.962 13.6754 159.074 14.0456C160.309 14.2622 161.584 14.1479 162.628 13.3992C163.551 12.7363 164.214 11.7384 164.389 10.6084C164.505 9.86217 163.363 9.54064 163.246 10.2933C163.081 11.3562 162.426 12.287 161.429 12.7288C160.225 13.2619 158.845 12.8325 157.674 12.4251C155.586 11.6988 152.767 10.7768 151.081 12.8296C150.6 13.4146 151.434 14.2578 151.919 13.6677Z" fill="white"/>
<path d="M120.437 111.266H93.1199C91.3123 111.266 89.8419 109.796 89.8419 107.989V69.0718C89.8419 67.2647 91.3123 65.7948 93.1199 65.7948H120.437C122.245 65.7948 123.715 67.2647 123.715 69.0718V107.989C123.715 109.796 122.245 111.266 120.437 111.266Z" fill="#2B8FBA"/>
<path d="M202.723 5.08872C203.294 9.91746 203.479 14.7883 203.257 19.6459C203.223 20.3987 204.392 20.5993 204.427 19.8375C204.654 14.8723 204.486 9.89905 203.903 4.96255C203.813 4.20646 202.634 4.32856 202.723 5.08872Z" fill="white"/>
<path d="M206.676 5.08872C207.246 9.91746 207.432 14.7883 207.209 19.6459C207.175 20.3987 208.345 20.5993 208.379 19.8375C208.607 14.8723 208.438 9.89905 207.855 4.96255C207.766 4.20646 206.586 4.32856 206.676 5.08872Z" fill="white"/>
<path d="M210.628 5.08872C211.199 9.91746 211.384 14.7883 211.162 19.6459C211.127 20.3987 212.297 20.5993 212.332 19.8375C212.559 14.8723 212.391 9.89905 211.807 4.96255C211.718 4.20646 210.538 4.32856 210.628 5.08872Z" fill="white"/>
<path d="M89.6968 96.1001C92.3084 95.3288 94.8234 96.0507 95.3142 97.7121C95.8049 99.3736 94.0857 101.345 91.473 102.116C90.4336 102.439 89.3321 102.508 88.2606 102.317L77.1538 105.445L75.7963 100.204L86.8898 97.6767C87.6861 96.9346 88.6486 96.394 89.6968 96.1001Z" fill="#A0616A"/>
<path d="M70.0517 77.525L68.3108 98.3425L83.9041 98.5101L86.9303 103.168C86.9303 103.168 68.0305 114.107 62.3554 108.518C56.6803 102.928 54.1552 79.4071 59.2008 75.381C64.2465 71.3549 70.0517 77.525 70.0517 77.525Z" fill="#3F3D56"/>
<path d="M96.0191 80.6308L117.373 79.9855C118.857 79.9407 118.999 77.6217 117.502 77.6669L96.1479 78.3122C94.6648 78.357 94.5225 80.676 96.0191 80.6308Z" fill="white"/>
<path d="M96.0191 88.3714L117.373 87.7261C118.857 87.6813 118.999 85.3623 117.502 85.4075L96.1479 86.0528C94.6648 86.0976 94.5225 88.4166 96.0191 88.3714Z" fill="white"/>
<path d="M96.0191 96.1119L117.373 95.4666C118.857 95.4218 118.999 93.1028 117.502 93.148L96.1479 93.7933C94.6648 93.8381 94.5225 96.1571 96.0191 96.1119Z" fill="white"/>
</g>
<defs>
<clipPath id="clip0_49_153">
<rect width="380" height="203" fill="white"/>
</clipPath>
</defs>
</svg>
