<svg width="478" height="345" viewBox="0 0 478 345" fill="none" xmlns="http://www.w3.org/2000/svg">
<g clip-path="url(#clip0_49_214)">
<path d="M297.906 344.817C302.611 334.66 307.313 324.353 309.356 313.349C311.398 302.344 310.541 290.401 304.692 280.857C298.843 271.312 287.327 264.839 276.337 266.997C267.311 268.769 260.063 275.873 255.819 284.029C251.575 292.185 249.872 301.384 248.222 310.427C247.688 300.153 247.123 289.714 243.708 280.009C240.293 270.304 233.568 261.26 223.983 257.505C214.399 253.749 201.931 256.702 196.879 265.666C189.763 278.295 199.199 296.009 191.016 307.975C189.612 295.972 177.051 286.489 165.113 288.419C153.175 290.35 144.248 303.307 146.704 315.14C148.165 322.181 152.972 328.17 158.72 332.497C164.467 336.823 171.152 341.838 177.764 344.674L297.906 344.817Z" fill="#F2F2F2"/>
<path d="M152.972 296.9C162.454 300.212 172.025 303.562 180.682 308.74C188.441 313.381 195.351 319.63 199.714 327.632C202.105 331.925 203.525 336.69 203.873 341.591C203.936 342.616 205.541 342.623 205.477 341.591C204.916 332.465 200.465 324.113 194.302 317.508C187.545 310.266 178.788 305.32 169.748 301.482C164.387 299.207 158.893 297.273 153.398 295.354C152.421 295.013 152.002 296.561 152.972 296.9Z" fill="white"/>
<path d="M207.67 259.096C213.496 268.795 218.162 279.145 221.57 289.932C224.986 300.716 227.138 311.859 227.982 323.139C228.449 329.453 228.5 335.791 228.135 342.112C228.075 343.142 229.68 343.139 229.739 342.112C230.386 330.715 229.696 319.283 227.682 308.047C225.672 296.813 222.368 285.848 217.836 275.373C215.292 269.489 212.359 263.781 209.055 258.287C208.944 258.111 208.769 257.985 208.567 257.936C208.364 257.886 208.151 257.917 207.971 258.022C207.792 258.127 207.66 258.298 207.603 258.498C207.547 258.698 207.571 258.913 207.67 259.096Z" fill="white"/>
<path d="M286.189 268.304C277.948 286.807 272.148 306.302 268.936 326.298C268.035 331.915 267.336 337.56 266.842 343.232C266.752 344.259 268.357 344.253 268.446 343.232C270.193 323.28 274.508 303.636 281.285 284.788C283.19 279.488 285.286 274.263 287.574 269.114C287.989 268.179 286.607 267.362 286.189 268.304Z" fill="white"/>
<path d="M56.721 343.617C40.2851 339.343 25.7613 329.677 15.478 316.171C5.19456 302.664 -0.252935 286.098 0.00869773 269.129C0.0738791 264.901 0.518742 260.584 2.29733 256.748C4.07591 252.911 7.37961 249.592 11.5122 248.683C16.0222 247.691 20.7813 249.719 24.1424 252.884C27.5035 256.048 29.7073 260.224 31.7349 264.37C43.9475 289.344 53.2264 316.14 56.7004 343.718L56.721 343.617Z" fill="#F2F2F2"/>
<path d="M9.46608 249.516L18.0254 268.95L26.5847 288.383C29.2955 294.538 32.001 300.695 34.8029 306.809C37.5801 312.87 40.4526 318.888 43.5169 324.809C46.5768 330.722 49.829 336.538 53.3591 342.185C53.7987 342.888 54.2426 343.588 54.6908 344.286C55.001 344.769 55.7765 344.321 55.4641 343.834C51.8663 338.23 48.5512 332.449 45.4419 326.561C42.3293 320.667 39.4201 314.667 36.6183 308.62C33.8016 302.54 31.0932 296.411 28.392 290.28C25.5488 283.826 22.706 277.371 19.8638 270.917L11.3044 251.483L10.2393 249.065C10.0076 248.539 9.23589 248.994 9.46608 249.516Z" fill="white"/>
<path d="M53.1505 343.752C43.4624 345.967 33.3108 344.867 24.3229 340.629C15.335 336.39 8.03146 329.259 3.58293 320.379C2.47456 318.166 1.53935 315.805 1.42622 313.333C1.31309 310.861 2.1318 308.247 4.03174 306.66C6.10525 304.928 9.12403 304.697 11.724 305.434C14.324 306.17 16.5962 307.743 18.769 309.349C31.8563 319.02 43.913 330.429 53.167 343.81L53.1505 343.752Z" fill="#F2F2F2"/>
<path d="M3.1946 307.645L12.8885 315.425L22.5825 323.206C25.6526 325.67 28.7207 328.137 31.8271 330.555C34.9063 332.952 38.0235 335.302 41.214 337.55C44.4001 339.794 47.6599 341.936 51.018 343.915C51.4361 344.162 51.8558 344.406 52.277 344.647C52.5686 344.814 52.8501 344.372 52.5565 344.204C49.1745 342.265 45.8917 340.158 42.6867 337.94C39.4783 335.719 36.3471 333.389 33.2588 331.005C30.1539 328.609 27.092 326.157 24.0331 323.703C20.8133 321.119 17.5937 318.535 14.3744 315.95L4.6804 308.17L3.47405 307.202C3.21171 306.991 2.93387 307.435 3.1946 307.645Z" fill="white"/>
<path d="M465.754 345H23.3538C23.27 345 23.187 344.984 23.1096 344.952C23.0321 344.92 22.9617 344.873 22.9024 344.814C22.843 344.755 22.796 344.685 22.7639 344.608C22.7317 344.53 22.7152 344.447 22.7152 344.364C22.7152 344.28 22.7317 344.197 22.7639 344.12C22.796 344.042 22.843 343.972 22.9024 343.913C22.9617 343.854 23.0321 343.807 23.1096 343.775C23.187 343.743 23.27 343.727 23.3538 343.727H465.754C465.923 343.727 466.085 343.794 466.204 343.914C466.323 344.033 466.39 344.195 466.39 344.364C466.39 344.532 466.323 344.694 466.204 344.814C466.085 344.933 465.923 345 465.754 345Z" fill="#3F3D56"/>
<path d="M454.132 281.253H424.18C424.18 281.608 424.039 281.947 423.789 282.198C423.538 282.448 423.198 282.589 422.844 282.589H393.443C393.027 282.902 392.649 283.26 392.314 283.658C391.309 284.856 390.76 286.37 390.763 287.933V289.002C390.764 290.773 391.469 292.472 392.722 293.724C393.975 294.977 395.675 295.681 397.448 295.681H454.132C455.904 295.68 457.604 294.976 458.857 293.723C460.11 292.471 460.815 290.773 460.816 289.002V287.933C460.814 286.162 460.109 284.465 458.856 283.212C457.603 281.96 455.904 281.256 454.132 281.253Z" fill="#3F3D56"/>
<path d="M429.531 295.416H422.579V344.578H429.531V295.416Z" fill="#3F3D56"/>
<path d="M449.317 344.334C449.317 345.085 438.782 344.625 425.787 344.625C412.793 344.625 402.258 345.085 402.258 344.334C402.258 343.584 412.793 337.631 425.787 337.631C438.782 337.631 449.317 343.584 449.317 344.334Z" fill="#3F3D56"/>
<path d="M452.822 282.792L451.656 275.503C451.508 274.585 451.002 273.762 450.248 273.216C449.494 272.67 448.554 272.445 447.635 272.591L435.608 274.509L415.009 277.796L408.309 278.865H422.844C423.198 278.865 423.538 279.006 423.789 279.256C424.039 279.507 424.18 279.846 424.18 280.201V281.253C424.18 281.607 424.039 281.947 423.789 282.198C423.538 282.448 423.198 282.589 422.844 282.589H385.855C385.338 282.83 384.891 283.198 384.555 283.658C384.271 284.032 384.065 284.459 383.951 284.915C383.837 285.371 383.817 285.845 383.892 286.308L384.223 288.382L384.624 290.899L385.058 293.603C385.205 294.519 385.71 295.34 386.462 295.884C387.214 296.429 388.151 296.654 389.068 296.51L398.624 294.987L426.186 290.589L449.907 286.805C450.825 286.656 451.646 286.15 452.192 285.399C452.738 284.647 452.964 283.71 452.822 282.792Z" fill="#B4539A"/>
<path d="M397.892 283.658C397.54 283.191 397.074 282.823 396.539 282.589H386.314C385.777 282.822 385.308 283.19 384.956 283.658C384.48 284.267 384.222 285.017 384.223 285.79V326.515C384.225 327.443 384.594 328.332 385.251 328.988C385.908 329.644 386.798 330.014 387.726 330.015H395.122C396.05 330.013 396.941 329.644 397.597 328.988C398.254 328.332 398.623 327.443 398.624 326.515V285.79C398.625 285.018 398.367 284.267 397.892 283.658Z" fill="#B4539A"/>
<path d="M420.148 214.296L420.079 214.205L415.491 208.557C415.246 208.254 414.952 207.995 414.619 207.793C414.443 207.674 414.252 207.577 414.052 207.504C413.759 207.387 413.452 207.312 413.138 207.28C412.928 207.258 412.717 207.254 412.507 207.269C412.503 207.27 412.499 207.272 412.496 207.275C411.787 207.327 411.111 207.595 410.56 208.044L401.143 215.675L389.042 225.486L370.983 240.128L369.667 241.197H392.518L393.838 240.128L398.207 236.585L398.517 236.339L419.619 219.234L419.635 219.223C420.069 218.874 420.412 218.425 420.635 217.914C420.782 217.58 420.876 217.224 420.913 216.861C420.962 216.404 420.919 215.942 420.788 215.502C420.657 215.062 420.439 214.652 420.148 214.296Z" fill="#B4539A"/>
<path d="M420.079 214.205C419.784 212.765 419.129 211.423 418.175 210.304C417.224 209.177 416 208.312 414.619 207.793C414.405 207.713 414.197 207.638 413.983 207.579C413.5 207.436 413.006 207.332 412.507 207.269C412.503 207.27 412.499 207.272 412.496 207.275C410.246 207.015 407.983 207.639 406.186 209.017L389.897 221.457C389.551 221.766 389.271 222.141 389.074 222.561C388.876 222.981 388.765 223.436 388.748 223.899C388.722 224.444 388.823 224.987 389.042 225.486C389.095 225.598 389.154 225.71 389.218 225.817C389.343 226.034 389.494 226.235 389.667 226.416L392.277 229.344L398.346 236.147L398.517 236.339L398.908 236.783C399.219 237.123 399.593 237.399 400.011 237.594C400.428 237.789 400.88 237.9 401.341 237.921C401.801 237.941 402.261 237.87 402.695 237.713C403.128 237.555 403.525 237.313 403.865 237.002L417.913 221.922C418.643 221.139 419.221 220.227 419.619 219.234C420.261 217.639 420.42 215.89 420.079 214.205Z" fill="#2F2E41"/>
<path d="M426.289 194.855C441.092 194.855 453.092 182.864 453.092 168.071C453.092 153.279 441.092 141.288 426.289 141.288C411.486 141.288 399.486 153.279 399.486 168.071C399.486 182.864 411.486 194.855 426.289 194.855Z" fill="#B4539A"/>
<path d="M436.341 279.105L435.608 274.509L435.175 271.811C435.027 270.894 434.522 270.072 433.769 269.527C433.016 268.982 432.077 268.758 431.159 268.904L411.678 272.009L406.395 272.853L405.325 273.024V278.865H422.844C423.198 278.865 423.538 279.006 423.789 279.256C424.039 279.507 424.18 279.846 424.18 280.201V281.253C424.18 281.608 424.039 281.947 423.789 282.198C423.538 282.448 423.198 282.589 422.844 282.589H367.406C367.406 282.6 367.411 282.611 367.411 282.621L367.742 284.695L368.577 289.91C368.724 290.826 369.229 291.647 369.981 292.192C370.732 292.737 371.67 292.962 372.587 292.817L382.143 291.294L384.223 290.963L384.624 290.899L398.624 288.665L408.148 287.142L423.261 284.732L423.485 284.695L433.426 283.113C434.344 282.966 435.166 282.462 435.712 281.711C436.258 280.959 436.484 280.023 436.341 279.105Z" fill="#B4539A"/>
<path d="M462.768 259.451C462.768 281.285 460.549 294.345 426.325 290.605C426.277 290.599 426.234 290.594 426.186 290.589C420.082 289.986 414.045 288.833 408.148 287.142C405.084 286.248 402.106 285.082 399.25 283.658C398.576 283.316 397.929 282.958 397.293 282.589H422.844C423.198 282.589 423.538 282.448 423.789 282.198C424.039 281.947 424.18 281.608 424.18 281.253V280.201C424.18 279.846 424.039 279.507 423.789 279.256C423.538 279.006 423.198 278.865 422.844 278.865H405.325V245.114C405.324 244.075 404.91 243.08 404.175 242.346C403.441 241.611 402.444 241.198 401.405 241.197H387.154C387.277 240.844 387.4 240.486 387.534 240.128C388.871 236.431 390.455 232.828 392.277 229.344C394.772 224.506 397.742 219.927 401.143 215.675C403.511 212.712 406.17 209.993 409.079 207.558C414.443 203.133 420.282 200.397 426.207 200.397C448.057 200.397 462.768 237.616 462.768 259.451Z" fill="#2F2E41"/>
<path d="M426.852 177.998L426.88 176.998C425.017 176.946 423.374 176.829 422.14 175.928C421.79 175.658 421.502 175.316 421.296 174.924C421.09 174.533 420.971 174.103 420.947 173.662C420.925 173.392 420.966 173.121 421.066 172.87C421.166 172.619 421.323 172.394 421.524 172.213C422.344 171.521 423.662 171.745 424.623 172.186L425.452 172.565L423.863 160.96L422.871 161.095L424.222 170.968C423.669 170.762 423.073 170.699 422.489 170.783C421.905 170.867 421.351 171.096 420.878 171.449C420.56 171.726 420.31 172.074 420.148 172.464C419.987 172.854 419.918 173.276 419.946 173.697C419.975 174.289 420.134 174.869 420.411 175.394C420.688 175.919 421.076 176.377 421.549 176.736C423.135 177.894 425.196 177.952 426.852 177.998Z" fill="#2F2E41"/>
<path d="M417.963 161.947H412.569V162.948H417.963V161.947Z" fill="#2F2E41"/>
<path d="M434.991 161.947H429.596V162.948H434.991V161.947Z" fill="#2F2E41"/>
<path d="M447.68 160.712C445.596 157.577 441.928 156.248 438.311 155.924C434.24 155.56 430.306 156.345 426.331 157.107C421.957 157.946 417.327 158.731 412.919 157.67C410.969 157.219 409.147 156.332 407.59 155.075C406.033 153.818 404.782 152.225 403.931 150.415C402.317 146.883 401.97 142.903 402.946 139.145C403.979 135.148 406.543 131.632 409.651 128.975C415.995 123.554 424.58 121.118 432.836 121.347C441.062 121.559 449.012 124.353 455.561 129.332C462.12 134.49 466.735 141.718 468.654 149.836C470.661 157.887 470.007 166.371 466.791 174.02C464.984 178.209 462.371 181.985 460.355 186.068C458.477 189.869 457.031 194.289 458.199 198.529C459.224 202.25 462.234 205.556 466.012 206.566C467.731 207.016 469.55 206.897 471.195 206.226C472.84 205.555 474.223 204.368 475.135 202.844C477.024 199.868 477.069 195.97 474.233 193.567C473.518 192.952 472.685 192.487 471.785 192.203C470.885 191.919 469.937 191.821 468.997 191.915C468.058 192.008 467.148 192.292 466.322 192.748C465.496 193.204 464.771 193.824 464.192 194.569C463.041 196.062 462.527 197.948 462.759 199.818C462.898 200.763 461.451 201.171 461.31 200.217C460.972 198.239 461.347 196.206 462.369 194.479C463.391 192.752 464.993 191.444 466.891 190.787C468.788 190.13 470.857 190.168 472.729 190.894C474.601 191.619 476.154 192.985 477.112 194.748C478.822 197.961 477.9 201.837 475.729 204.583C474.609 206.046 473.091 207.155 471.356 207.778C469.622 208.402 467.744 208.512 465.949 208.097C461.997 207.185 458.765 204.047 457.245 200.359C455.552 196.254 456.328 191.672 457.978 187.688C459.761 183.382 462.409 179.519 464.503 175.369C466.4 171.619 467.606 167.559 468.066 163.382C468.986 154.995 467.081 146.54 462.653 139.356C458.139 132.284 451.249 127.052 443.222 124.599C435.252 122.041 426.649 122.268 418.826 125.244C411.192 128.25 403.82 134.801 403.908 143.598C403.946 147.357 405.342 151.189 408.223 153.696C411.666 156.691 416.459 156.948 420.787 156.48C425.142 156.01 429.371 154.739 433.745 154.414C437.55 154.132 441.654 154.426 445.051 156.314C446.633 157.196 447.979 158.444 448.978 159.955C449.514 160.762 448.213 161.514 447.68 160.712Z" fill="#2F2E41"/>
<path d="M442.223 221.954L440.1 220.479L436.148 217.738C435.384 217.21 434.442 217.006 433.527 217.171C432.613 217.337 431.802 217.857 431.271 218.619L418.389 237.146L406.395 254.396L405.325 255.935V278.865H405.421C406.255 278.782 407.031 278.403 407.608 277.796C407.732 277.669 407.845 277.531 407.945 277.384L411.678 272.009L420.902 258.74L430.464 244.996L431.373 243.687L443.095 226.827C443.159 226.738 443.218 226.645 443.271 226.549C443.325 226.458 443.373 226.363 443.415 226.266C443.752 225.521 443.817 224.682 443.599 223.895C443.381 223.107 442.894 222.421 442.223 221.954Z" fill="#B4539A"/>
<path d="M442.261 214.622C441.883 214.374 441.486 214.156 441.073 213.97C439.246 213.134 437.187 212.951 435.241 213.453C433.295 213.955 431.582 215.112 430.389 216.728L418.218 233.218C417.974 233.611 417.81 234.048 417.736 234.505C417.662 234.961 417.68 235.428 417.789 235.878C417.897 236.327 418.094 236.751 418.368 237.124C418.642 237.496 418.987 237.811 419.384 238.049L430.464 244.996L430.603 245.081L431.159 245.429C431.954 245.909 432.908 246.055 433.811 245.835C434.714 245.615 435.493 245.046 435.977 244.253L444.571 227.207L444.715 226.923L444.72 226.918L445.25 225.855C446.215 223.942 446.444 221.741 445.893 219.67C445.342 217.6 444.049 215.803 442.261 214.622Z" fill="#2F2E41"/>
<path d="M367.742 282.589V322.822C367.744 323.75 368.113 324.639 368.77 325.296C369.426 325.952 370.316 326.321 371.245 326.322H378.641C379.569 326.321 380.459 325.952 381.116 325.296C381.773 324.64 382.142 323.75 382.143 322.822V282.589H367.742Z" fill="#B4539A"/>
<path d="M422.844 277.796H406.395V245.114C406.393 243.792 405.867 242.524 404.932 241.59C403.996 240.655 402.728 240.129 401.405 240.128H340.406C339.082 240.128 337.813 240.653 336.876 241.588C335.94 242.523 335.413 243.791 335.411 245.114V278.672C335.413 279.995 335.94 281.263 336.876 282.198C337.813 283.132 339.082 283.658 340.406 283.658H422.844C422.929 283.658 423.009 283.653 423.09 283.647C423.164 283.642 423.239 283.626 423.314 283.615C423.86 283.505 424.351 283.209 424.703 282.779C425.056 282.349 425.249 281.81 425.25 281.253V280.201C425.25 279.563 424.996 278.951 424.545 278.5C424.094 278.049 423.482 277.796 422.844 277.796ZM422.844 282.589H340.406C339.366 282.589 338.368 282.176 337.633 281.442C336.897 280.707 336.482 279.711 336.481 278.672V245.114C336.482 244.074 336.897 243.078 337.633 242.344C338.368 241.61 339.366 241.197 340.406 241.197H401.405C402.444 241.198 403.441 241.611 404.175 242.346C404.91 243.08 405.324 244.075 405.325 245.114V278.865H422.844C423.198 278.865 423.538 279.006 423.789 279.256C424.039 279.507 424.18 279.846 424.18 280.201V281.253C424.18 281.608 424.039 281.947 423.789 282.198C423.538 282.448 423.198 282.589 422.844 282.589Z" fill="#3F3D56"/>
<path d="M370.903 266.003C373.175 266.003 375.016 264.163 375.016 261.893C375.016 259.624 373.175 257.784 370.903 257.784C368.632 257.784 366.791 259.624 366.791 261.893C366.791 264.163 368.632 266.003 370.903 266.003Z" fill="#B4539A"/>
<path d="M65.2381 193.091C81.0443 193.091 93.8577 180.286 93.8577 164.491C93.8577 148.696 81.0443 135.892 65.2381 135.892C49.4319 135.892 36.6184 148.696 36.6184 164.491C36.6184 180.286 49.4319 193.091 65.2381 193.091Z" fill="#2B8FBA"/>
<path d="M59.6591 272.078H51.7662C50.8446 272.079 49.961 272.445 49.3093 273.096C48.6577 273.748 48.2912 274.631 48.2903 275.551V341.285C48.2912 342.206 48.6576 343.089 49.3093 343.74C49.961 344.391 50.8446 344.757 51.7662 344.758H59.6591C60.5807 344.757 61.4643 344.391 62.1159 343.74C62.7676 343.089 63.1341 342.206 63.135 341.285V275.551C63.1341 274.631 62.7676 273.748 62.1159 273.096C61.4643 272.445 60.5807 272.079 59.6591 272.078Z" fill="#2F2E41"/>
<path d="M76.338 272.078H68.4451C67.5235 272.079 66.6399 272.445 65.9883 273.096C65.3366 273.748 64.9701 274.631 64.9692 275.551V341.285C64.9701 342.206 65.3366 343.089 65.9883 343.74C66.6399 344.391 67.5235 344.757 68.4451 344.758H76.338C76.7945 344.758 77.2465 344.668 77.6682 344.494C78.09 344.319 78.4731 344.063 78.7959 343.741C79.1187 343.418 79.3747 343.035 79.5494 342.614C79.7241 342.193 79.814 341.741 79.8139 341.285V275.551C79.8139 275.095 79.7241 274.644 79.5494 274.222C79.3747 273.801 79.1187 273.418 78.7959 273.095C78.4731 272.773 78.0899 272.517 77.6682 272.342C77.2465 272.168 76.7945 272.078 76.338 272.078Z" fill="#2F2E41"/>
<path d="M82.0545 208.087C79.2885 204.515 75.4743 201.896 71.1454 200.597C66.8165 199.298 62.1896 199.384 57.912 200.843C53.6343 202.301 49.92 205.06 47.2887 208.732C44.6573 212.404 43.2406 216.807 43.2367 221.323V279.538C43.2346 279.715 43.2489 279.892 43.2795 280.067C43.4065 280.958 43.8505 281.773 44.5302 282.363C45.2099 282.952 46.0797 283.278 46.98 283.279H82.8462C83.8384 283.276 84.7893 282.882 85.4909 282.181C86.1924 281.48 86.5875 280.529 86.5895 279.538V221.323C86.5962 216.529 85.0001 211.871 82.0545 208.087Z" fill="#2F2E41"/>
<path d="M89.4067 177.134L89.3769 176.065C91.3666 176.01 93.1207 175.885 94.4388 174.923C94.8125 174.634 95.1196 174.269 95.3394 173.851C95.5591 173.434 95.6863 172.974 95.7122 172.503C95.7354 172.215 95.6918 171.926 95.5849 171.657C95.478 171.389 95.3106 171.149 95.0957 170.956C94.2208 170.218 92.8129 170.457 91.7867 170.927L90.9018 171.332L92.5987 158.94L93.6583 159.085L92.2149 169.626C93.6092 169.217 94.9012 169.393 95.7861 170.14C96.1259 170.436 96.3925 170.807 96.565 171.224C96.7376 171.64 96.8115 172.091 96.781 172.54C96.7497 173.173 96.5804 173.792 96.2848 174.352C95.9891 174.913 95.5744 175.402 95.0696 175.786C93.3761 177.023 91.1752 177.084 89.4067 177.134Z" fill="#2F2E41"/>
<path d="M86.477 159.994H80.7169V161.063H86.477V159.994Z" fill="#2F2E41"/>
<path d="M56.8464 208.91C56.5376 208.573 56.165 208.301 55.75 208.109C55.3351 207.917 54.8861 207.81 54.4293 207.793L48.2101 207.536L46.5469 207.467C45.6261 207.429 44.7279 207.758 44.0493 208.381C43.3707 209.004 42.9669 209.871 42.9266 210.791L41.9427 234.474L40.2047 276.471C40.1693 277.347 40.4664 278.204 41.0365 278.871C41.6067 279.538 42.4078 279.965 43.2796 280.067C43.3652 280.078 43.4454 280.083 43.531 280.088L48.2903 280.286L51.4187 280.414C51.6692 280.425 51.9202 280.409 52.1673 280.366C52.8206 280.249 53.4271 279.949 53.9159 279.501C54.2531 279.192 54.5255 278.82 54.7174 278.405C54.9092 277.99 55.0167 277.542 55.0335 277.085L55.2421 272.078L56.7769 235.041L57.7608 211.405C57.7992 210.485 57.4703 209.588 56.8464 208.91Z" fill="#2B8FBA"/>
<path d="M52.2902 203.726C51.6256 203.586 50.948 203.516 50.2687 203.518C47.6459 203.521 45.1314 204.564 43.2768 206.417C41.4222 208.27 40.3789 210.783 40.3757 213.404V231.573C40.3772 232.148 40.5211 232.714 40.7945 233.22C41.0678 233.726 41.4623 234.157 41.9427 234.474C42.3343 234.732 42.7748 234.907 43.2367 234.987C43.4394 235.026 43.6453 235.045 43.8516 235.046H56.6858C56.7162 235.047 56.7468 235.045 56.7769 235.041C57.6821 235.018 58.5426 234.642 59.1748 233.994C59.8071 233.346 60.1612 232.477 60.1617 231.573V213.404C60.1588 211.133 59.3752 208.933 57.9422 207.171C56.5091 205.409 54.5137 204.193 52.2902 203.726Z" fill="#2F2E41"/>
<path d="M120.835 255.47C119.996 255.037 119.338 254.321 118.976 253.45C118.614 252.579 118.571 251.608 118.857 250.708L121.899 241.031L121.012 240.293L97.6588 220.987L82.0545 208.087L80.1562 206.516C79.4464 205.928 78.5321 205.647 77.6145 205.733C76.697 205.819 75.8512 206.266 75.2633 206.975L70.2312 213.056C69.9394 213.407 69.7198 213.812 69.5849 214.248C69.4501 214.684 69.4027 215.142 69.4454 215.597C69.4881 216.051 69.6201 216.492 69.8339 216.895C70.0476 217.298 70.3389 217.656 70.691 217.946L86.5895 231.092L88.3969 232.582L121.375 259.846C121.985 260.353 122.75 260.635 123.543 260.647C124.336 260.658 125.109 260.399 125.733 259.91C125.906 259.776 126.063 259.623 126.204 259.456C126.227 259.434 126.248 259.411 126.268 259.387L126.905 258.617L120.835 255.47Z" fill="#2B8FBA"/>
<path d="M96.5357 217.278L82.4666 205.773C81.4613 204.951 80.3037 204.334 79.06 203.959C77.8163 203.583 76.5108 203.456 75.2179 203.585C73.9251 203.714 72.6703 204.096 71.5252 204.709C70.3801 205.322 69.3671 206.155 68.5441 207.16C67.721 208.164 67.104 209.321 66.7283 210.564C66.3526 211.807 66.2256 213.111 66.3544 214.403C66.6147 217.012 67.9014 219.411 69.9317 221.072L84.0011 232.577C84.6209 233.084 85.397 233.362 86.1981 233.363C86.9991 233.364 87.7759 233.088 88.3969 232.583C88.582 232.439 88.7489 232.274 88.8941 232.091L97.0224 222.168C97.3102 221.82 97.5264 221.418 97.6588 220.987C97.8589 220.327 97.859 219.622 97.6592 218.962C97.4593 218.302 97.0684 217.716 96.5357 217.278Z" fill="#2F2E41"/>
<path d="M58.063 169.334C56.5727 166.846 55.4063 164.104 55.96 161.157C56.4543 158.524 58.35 156.474 61.0758 156.205C62.7173 156.043 64.351 156.481 65.9544 156.766C67.2686 156.997 68.6041 157.083 69.9372 157.024C72.6194 156.902 75.2487 156.236 77.665 155.066C80.1176 153.919 82.296 152.261 84.0537 150.202C85.8115 148.144 87.1078 145.734 87.8555 143.133C89.4821 137.215 88.2744 130.496 84.4115 125.679L85.7522 125.325L84.0066 131.056C83.9725 131.173 83.9123 131.282 83.8304 131.373C83.7485 131.463 83.647 131.535 83.5336 131.581C83.4202 131.627 83.2978 131.647 83.1757 131.639C83.0535 131.631 82.9347 131.595 82.8282 131.535C79.6645 129.537 76.1277 128.203 72.4323 127.612C68.7369 127.022 64.96 127.188 61.3307 128.1C59.28 128.615 57.2993 129.377 55.4319 130.368C54.5207 130.852 53.7092 129.468 54.6222 128.983C58.1296 127.155 61.9719 126.056 65.9164 125.755C69.8609 125.453 73.8257 125.953 77.571 127.227C79.704 127.953 81.7411 128.935 83.6379 130.151L82.4596 130.63L84.2052 124.899C84.2441 124.765 84.3171 124.643 84.417 124.546C84.5169 124.448 84.6404 124.378 84.7753 124.343C84.9103 124.307 85.0523 124.307 85.1873 124.343C85.3223 124.378 85.4459 124.448 85.5459 124.545C87.3425 126.823 88.6592 129.44 89.4166 132.239C90.174 135.039 90.3564 137.963 89.9529 140.834C89.5629 143.665 88.5787 146.381 87.0646 148.805C85.5506 151.229 83.541 153.305 81.1676 154.898C78.7966 156.498 76.1317 157.611 73.3272 158.175C70.5227 158.738 67.6342 158.74 64.8289 158.181C63.2589 157.879 61.4784 157.447 59.938 158.104C59.3793 158.374 58.8868 158.762 58.4955 159.243C58.1041 159.724 57.8236 160.286 57.6738 160.887C56.8009 163.843 58.2862 166.65 59.8034 169.107L58.063 169.334Z" fill="#2F2E41"/>
<path d="M162.471 228.543L136.017 213.244C135.358 212.863 134.622 212.635 133.863 212.577C133.104 212.518 132.342 212.631 131.633 212.907C130.923 213.182 130.285 213.613 129.765 214.168C129.244 214.723 128.855 215.388 128.627 216.113L121.012 240.294L117.835 250.388C117.475 251.527 117.53 252.756 117.988 253.859C118.447 254.962 119.281 255.867 120.343 256.416L126.204 259.456L145.327 269.369C146.05 269.745 146.854 269.941 147.669 269.941C148.271 269.939 148.868 269.832 149.434 269.625L149.471 269.609C150.139 269.354 150.746 268.962 151.253 268.457C151.76 267.953 152.155 267.348 152.412 266.681L164.669 234.752C165.106 233.625 165.124 232.38 164.721 231.241C164.318 230.101 163.52 229.144 162.471 228.543ZM163.669 234.373L151.412 266.301C151.208 266.828 150.896 267.305 150.495 267.703C150.094 268.101 149.614 268.41 149.086 268.61L149.06 268.621C148.535 268.814 147.976 268.897 147.418 268.863C146.86 268.828 146.316 268.679 145.819 268.423L126.905 258.617L120.835 255.47C119.996 255.037 119.338 254.322 118.976 253.45C118.614 252.579 118.571 251.608 118.857 250.708L121.899 241.031L129.643 216.434C129.824 215.862 130.132 215.338 130.543 214.901C130.954 214.464 131.458 214.124 132.017 213.906C132.577 213.689 133.178 213.6 133.777 213.645C134.375 213.69 134.956 213.869 135.477 214.168L161.931 229.467C162.76 229.942 163.391 230.698 163.71 231.598C164.029 232.498 164.014 233.482 163.669 234.373Z" fill="#3F3D56"/>
<path d="M153.595 238.773C153.328 238.773 153.064 238.705 152.829 238.577L135.182 228.958C134.81 228.754 134.534 228.41 134.415 228.003C134.296 227.596 134.343 227.158 134.546 226.785C134.749 226.413 135.092 226.136 135.499 226.016C135.906 225.895 136.345 225.941 136.718 226.143L154.365 235.762C154.678 235.932 154.925 236.203 155.068 236.529C155.21 236.856 155.239 237.221 155.151 237.566C155.063 237.911 154.862 238.217 154.58 238.436C154.299 238.654 153.952 238.773 153.595 238.773Z" fill="#6C63FF"/>
<path d="M150.387 245.719C150.119 245.719 149.855 245.652 149.62 245.524L131.973 235.905C131.601 235.7 131.325 235.357 131.206 234.95C131.087 234.543 131.134 234.105 131.338 233.732C131.541 233.36 131.884 233.083 132.291 232.963C132.698 232.842 133.136 232.888 133.51 233.09L151.157 242.709C151.47 242.879 151.717 243.149 151.859 243.476C152.002 243.803 152.031 244.168 151.943 244.513C151.854 244.858 151.654 245.164 151.372 245.383C151.09 245.601 150.744 245.72 150.387 245.719Z" fill="#6C63FF"/>
<path d="M147.713 253.201C147.445 253.201 147.182 253.133 146.946 253.005L129.3 243.386C128.927 243.182 128.652 242.838 128.532 242.431C128.413 242.024 128.461 241.586 128.664 241.214C128.867 240.841 129.21 240.564 129.617 240.444C130.024 240.324 130.462 240.369 130.836 240.571L148.483 250.19C148.796 250.361 149.043 250.631 149.185 250.957C149.328 251.284 149.357 251.649 149.269 251.994C149.181 252.34 148.98 252.646 148.698 252.864C148.416 253.083 148.07 253.201 147.713 253.201Z" fill="#6C63FF"/>
<path d="M334.328 101.821H260.143C259.076 101.82 258.054 101.396 257.3 100.643C256.546 99.889 256.122 98.8674 256.12 97.8018V4.01925C256.122 2.95365 256.546 1.93204 257.3 1.17855C258.054 0.425054 259.076 0.00121209 260.143 0H334.328C335.395 0.00121914 336.417 0.425063 337.171 1.17856C337.925 1.93205 338.349 2.95365 338.351 4.01925V97.8018C338.349 98.8674 337.925 99.889 337.171 100.642C336.417 101.396 335.395 101.82 334.328 101.821ZM260.143 0.893169C259.313 0.894098 258.518 1.22375 257.932 1.80981C257.345 2.39586 257.015 3.19044 257.014 4.01925V97.8018C257.015 98.6306 257.345 99.4252 257.932 100.011C258.518 100.597 259.313 100.927 260.143 100.928H334.328C335.158 100.927 335.953 100.597 336.54 100.011C337.126 99.4252 337.456 98.6306 337.457 97.8018V4.01925C337.456 3.19045 337.126 2.39586 336.54 1.80981C335.953 1.22375 335.158 0.8941 334.328 0.893169H260.143Z" fill="#3F3D56"/>
<path d="M291.064 45.0789H274.735C274.201 45.0783 273.69 44.8664 273.313 44.4896C272.936 44.1129 272.724 43.6021 272.724 43.0693V23.8128C272.724 23.28 272.936 22.7691 273.313 22.3924C273.69 22.0156 274.201 21.8037 274.735 21.8031H291.064C291.598 21.8037 292.109 22.0156 292.486 22.3924C292.863 22.7691 293.075 23.28 293.075 23.8128V43.0693C293.075 43.6021 292.863 44.1129 292.486 44.4896C292.109 44.8664 291.598 45.0783 291.064 45.0789Z" fill="#2B8FBA"/>
<path d="M322.795 54.0106H306.465C305.931 54.01 305.42 53.7981 305.043 53.4213C304.666 53.0446 304.454 52.5337 304.454 52.0009V32.7444C304.454 32.2116 304.666 31.7008 305.043 31.3241C305.42 30.9473 305.931 30.7354 306.465 30.7348H322.795C323.328 30.7354 323.839 30.9473 324.216 31.3241C324.593 31.7008 324.805 32.2116 324.806 32.7444V52.0009C324.805 52.5337 324.593 53.0446 324.216 53.4213C323.839 53.7981 323.328 54.01 322.795 54.0106Z" fill="#AAAAAA"/>
<path d="M297.321 81.2522H280.991C280.458 81.2516 279.947 81.0396 279.57 80.6629C279.193 80.2861 278.981 79.7753 278.98 79.2425V59.986C278.981 59.4532 279.193 58.9424 279.57 58.5656C279.947 58.1889 280.458 57.977 280.991 57.9764H297.321C297.854 57.977 298.365 58.1889 298.742 58.5656C299.119 58.9424 299.332 59.4532 299.332 59.986V79.2425C299.332 79.7753 299.119 80.2861 298.742 80.6629C298.365 81.0396 297.854 81.2516 297.321 81.2522Z" fill="#B4539A"/>
<path d="M237.559 76.4725C237.25 75.7406 236.734 75.1152 236.073 74.6736C235.413 74.2319 234.637 73.9935 233.842 73.9876H159.656C158.589 73.9882 157.567 74.4118 156.813 75.1653C156.059 75.9188 155.635 76.9405 155.634 78.0061V171.789C155.635 172.854 156.059 173.876 156.813 174.63C157.567 175.383 158.589 175.807 159.656 175.807H233.842C234.908 175.806 235.93 175.382 236.684 174.629C237.438 173.875 237.862 172.854 237.864 171.789V78.0061C237.865 77.4797 237.762 76.9582 237.559 76.4725ZM236.971 171.789C236.97 172.617 236.64 173.412 236.053 173.998C235.467 174.584 234.672 174.914 233.842 174.915H159.656C158.826 174.915 158.03 174.585 157.444 173.999C156.857 173.413 156.527 172.618 156.527 171.789V78.0061C156.528 77.1774 156.858 76.3828 157.445 75.7968C158.031 75.2108 158.826 74.8811 159.656 74.88H233.842C234.467 74.8824 235.077 75.0707 235.594 75.421C236.111 75.7712 236.512 76.2675 236.746 76.8465C236.792 76.9619 236.831 77.0797 236.864 77.1992C236.935 77.4623 236.971 77.7336 236.971 78.0061V171.789Z" fill="#3F3D56"/>
<path d="M222.075 96.1299H199.73C199.256 96.1299 198.801 95.9417 198.466 95.6067C198.13 95.2717 197.942 94.8174 197.942 94.3436C197.942 93.8698 198.13 93.4155 198.466 93.0805C198.801 92.7455 199.256 92.5573 199.73 92.5573H222.075C222.549 92.5573 223.004 92.7455 223.339 93.0805C223.674 93.4155 223.862 93.8698 223.862 94.3436C223.862 94.8174 223.674 95.2717 223.339 95.6067C223.004 95.9417 222.549 96.1299 222.075 96.1299Z" fill="#3F3D56"/>
<path d="M222.075 105.508H199.73C199.256 105.508 198.801 105.32 198.466 104.985C198.13 104.65 197.942 104.196 197.942 103.722C197.942 103.248 198.13 102.794 198.466 102.459C198.801 102.124 199.256 101.935 199.73 101.935H222.075C222.549 101.935 223.004 102.124 223.339 102.459C223.674 102.794 223.862 103.248 223.862 103.722C223.862 104.196 223.674 104.65 223.339 104.985C223.004 105.32 222.549 105.508 222.075 105.508Z" fill="#3F3D56"/>
<path d="M188.264 110.848H171.934C171.401 110.848 170.89 110.636 170.513 110.259C170.136 109.882 169.924 109.371 169.923 108.839V89.582C169.924 89.0492 170.136 88.5384 170.513 88.1617C170.89 87.7849 171.401 87.573 171.934 87.5724H188.264C188.797 87.573 189.309 87.7849 189.686 88.1617C190.063 88.5384 190.275 89.0492 190.275 89.582V108.839C190.275 109.371 190.063 109.882 189.686 110.259C189.309 110.636 188.797 110.848 188.264 110.848Z" fill="#2B8FBA"/>
<path d="M221.92 124.711H171.42C171.185 124.712 170.952 124.666 170.735 124.576C170.518 124.487 170.32 124.355 170.154 124.189C169.988 124.023 169.856 123.826 169.766 123.609C169.676 123.392 169.629 123.16 169.629 122.925C169.629 122.69 169.676 122.458 169.766 122.241C169.856 122.024 169.988 121.827 170.154 121.661C170.32 121.495 170.518 121.363 170.735 121.274C170.952 121.184 171.185 121.138 171.42 121.139H221.92C222.394 121.139 222.847 121.328 223.182 121.663C223.517 121.998 223.705 122.452 223.705 122.925C223.705 123.398 223.517 123.852 223.182 124.187C222.847 124.522 222.394 124.71 221.92 124.711Z" fill="#CCCCCC"/>
<path d="M221.92 134.09H171.42C171.185 134.09 170.952 134.044 170.735 133.954C170.518 133.865 170.32 133.733 170.154 133.567C169.988 133.401 169.856 133.204 169.766 132.987C169.676 132.771 169.629 132.538 169.629 132.303C169.629 132.068 169.676 131.836 169.766 131.619C169.856 131.402 169.988 131.205 170.154 131.039C170.32 130.873 170.518 130.742 170.735 130.652C170.952 130.562 171.185 130.516 171.42 130.517H221.92C222.394 130.517 222.849 130.705 223.184 131.04C223.519 131.375 223.708 131.829 223.708 132.303C223.708 132.777 223.519 133.231 223.184 133.566C222.849 133.901 222.394 134.09 221.92 134.09Z" fill="#CCCCCC"/>
<path d="M221.92 143.468H171.42C171.185 143.468 170.952 143.422 170.735 143.333C170.518 143.243 170.32 143.112 170.154 142.946C169.988 142.78 169.856 142.583 169.766 142.366C169.676 142.149 169.629 141.916 169.629 141.681C169.629 141.447 169.676 141.214 169.766 140.997C169.856 140.78 169.988 140.583 170.154 140.417C170.32 140.251 170.518 140.12 170.735 140.03C170.952 139.941 171.185 139.895 171.42 139.895H221.92C222.394 139.895 222.849 140.083 223.184 140.418C223.519 140.753 223.708 141.208 223.708 141.681C223.708 142.155 223.519 142.61 223.184 142.945C222.849 143.28 222.394 143.468 221.92 143.468Z" fill="#CCCCCC"/>
<path d="M221.92 152.846H171.42C171.185 152.846 170.952 152.801 170.735 152.711C170.518 152.621 170.32 152.49 170.154 152.324C169.988 152.158 169.856 151.961 169.766 151.744C169.676 151.527 169.629 151.295 169.629 151.06C169.629 150.825 169.676 150.592 169.766 150.375C169.856 150.158 169.988 149.961 170.154 149.795C170.32 149.63 170.518 149.498 170.735 149.408C170.952 149.319 171.185 149.273 171.42 149.273H221.92C222.394 149.273 222.849 149.462 223.184 149.797C223.519 150.132 223.708 150.586 223.708 151.06C223.708 151.533 223.519 151.988 223.184 152.323C222.849 152.658 222.394 152.846 221.92 152.846Z" fill="#CCCCCC"/>
<path d="M221.92 162.224H171.42C171.185 162.225 170.952 162.179 170.735 162.089C170.518 162 170.32 161.868 170.154 161.702C169.988 161.536 169.856 161.339 169.766 161.122C169.676 160.905 169.629 160.673 169.629 160.438C169.629 160.203 169.676 159.971 169.766 159.754C169.856 159.537 169.988 159.34 170.154 159.174C170.32 159.008 170.518 158.876 170.735 158.787C170.952 158.697 171.185 158.651 171.42 158.652H221.92C222.394 158.652 222.847 158.841 223.182 159.176C223.517 159.511 223.705 159.965 223.705 160.438C223.705 160.911 223.517 161.365 223.182 161.7C222.847 162.035 222.394 162.223 221.92 162.224Z" fill="#CCCCCC"/>
<path d="M293.791 112.063L251.499 152.299L252.116 152.946L294.407 112.71L293.791 112.063Z" fill="#E6E6E6"/>
<path d="M251.105 153.289L256.472 153.226L256.463 152.332L252.055 152.385L252.325 147.989L251.432 147.935L251.105 153.289Z" fill="#E6E6E6"/>
<path d="M294.8 111.718L294.474 117.072L293.581 117.019L293.85 112.622L289.443 112.675L289.434 111.782L294.8 111.718Z" fill="#E6E6E6"/>
<path d="M272.953 137.417C275.668 137.417 277.869 135.217 277.869 132.504C277.869 129.791 275.668 127.592 272.953 127.592C270.238 127.592 268.037 129.791 268.037 132.504C268.037 135.217 270.238 137.417 272.953 137.417Z" fill="#E6E6E6"/>
<path d="M237.107 16.9447L194.815 57.1801L195.432 57.8271L237.723 17.5917L237.107 16.9447Z" fill="#E6E6E6"/>
<path d="M194.42 58.1708L199.788 58.1078L199.779 57.2138L195.371 57.2667L195.641 52.8709L194.748 52.8169L194.42 58.1708Z" fill="#E6E6E6"/>
<path d="M238.116 16.5992L237.79 21.9537L236.897 21.9002L237.166 17.5039L232.759 17.5568L232.75 16.6634L238.116 16.5992Z" fill="#E6E6E6"/>
<path d="M216.269 42.2983C218.984 42.2983 221.185 40.0989 221.185 37.3858C221.185 34.6728 218.984 32.4734 216.269 32.4734C213.554 32.4734 211.353 34.6728 211.353 37.3858C211.353 40.0989 213.554 42.2983 216.269 42.2983Z" fill="#E6E6E6"/>
<path d="M406.378 278.362H405.309V283.172H406.378V278.362Z" fill="#3F3D56"/>
</g>
<defs>
<clipPath id="clip0_49_214">
<rect width="478" height="345" fill="white"/>
</clipPath>
</defs>
</svg>
