<svg width="380" height="195" viewBox="0 0 380 195" fill="none" xmlns="http://www.w3.org/2000/svg">
<g clip-path="url(#clip0_49_110)">
<path d="M363.133 102.807L361.943 112.323L358.988 135.959H299.638C300.101 130.661 300.735 123.036 301.412 114.804C301.479 113.982 301.549 113.155 301.615 112.323C303.313 91.6311 305.17 68.2162 305.17 68.2162L312.972 69.6755L328.111 72.5015L334.28 73.6525L350.799 76.7405C359.035 78.2769 364.7 90.2489 363.133 102.807Z" fill="#F2F2F2"/>
<path d="M318.24 29.9264L325.538 42.7486L311.511 52.7291L305.527 36.9682L318.24 29.9264Z" fill="#FFB6B6"/>
<path d="M308.948 42.0567C318.934 42.0567 327.029 33.9297 327.029 23.9046C327.029 13.8795 318.934 5.75256 308.948 5.75256C298.962 5.75256 290.867 13.8795 290.867 23.9046C290.867 33.9297 298.962 42.0567 308.948 42.0567Z" fill="#FFB6B6"/>
<path d="M307.65 27.9627C306.214 25.7691 306.778 24.6217 305.576 23.8156C305.576 23.8155 305.092 23.4912 301.631 23.3062C300.856 17.7063 299.888 17.0272 299.888 17.0271C298.773 16.2445 297.118 16.4988 296.089 16.9775C293.912 17.9899 294.164 20.1769 292.698 20.5954C290.673 21.1735 286.988 17.9144 286.625 14.1834C286.329 11.1399 288.282 8.184 289.057 8.34037C289.825 8.49541 291.664 6.13849 292.657 6.17484C293.335 6.19967 296.106 4.99071 296.851 5.08523C297.665 5.18847 300.349 6.59448 300.461 6.27325C301.238 4.04099 301.009 3.42163 301.669 2.78303C302.837 1.65143 304.749 2.43944 307.748 2.8625C313.918 3.73294 314.994 1.69049 318.156 3.07488C319.754 3.7742 321.09 5.66019 323.698 9.40362C327.345 14.6388 329.169 17.2563 329.18 20.3094C329.192 23.4229 327.691 23.2253 327.031 27.8346C326.297 32.9655 327.857 35.3117 326.152 36.9787C324.835 38.267 322.157 38.5728 320.751 37.4421C318.342 35.5062 321.494 30.835 318.829 27.4222C317.192 25.3272 313.902 24.3951 312.395 25.4306C310.69 26.6015 311.629 30.0383 310.431 30.3642C309.404 30.6433 307.9 28.3449 307.65 27.9627Z" fill="#2F2E41"/>
<path d="M349.769 99.4555C349.264 108.113 347.261 110.846 346.56 121.069C346.406 123.314 346.314 125.919 346.314 129.027C346.314 129.819 346.319 130.585 346.319 131.333C346.319 132.926 346.288 134.431 346.104 135.959C345.964 137.178 345.723 138.406 345.324 139.699H306.381C306.377 139.691 306.377 139.682 306.372 139.673C306.145 138.678 306 137.728 305.89 136.817C305.855 136.526 305.824 136.24 305.798 135.959C305.763 135.628 305.732 135.303 305.702 134.982C305.583 133.701 305.465 132.49 305.184 131.333C304.808 129.735 304.124 128.23 302.721 126.778C302.147 126.184 301.572 125.722 301.011 125.317C300.902 125.242 300.796 125.167 300.687 125.092C299.135 124.023 297.666 123.252 296.395 121.069C296.373 121.039 296.355 121.003 296.338 120.973C296.119 120.59 295.549 119.586 295.137 118.248C294.703 116.858 294.44 115.11 294.913 113.324C296.04 109.09 300.213 108.667 303.624 104.389C303.992 103.927 304.356 103.417 304.702 102.849C306.245 100.331 306.662 98.1133 307.153 95.4769C307.232 95.0499 307.302 94.6274 307.359 94.2182C307.403 93.9101 307.442 93.6064 307.473 93.307C307.745 90.794 307.613 88.6287 307.293 86.6922C306.25 80.3501 303.172 76.4244 305.347 70.7336C306.031 68.9469 307 67.6045 307.977 66.4558C310.046 64.0219 312.173 62.4419 311.804 59.2997C311.432 56.1308 309.038 55.695 308.771 52.9266C308.635 51.5272 309.091 50.0528 309.946 48.6048V48.6005C312.681 43.9396 319.511 39.6484 323.851 39.7849C324.653 39.807 325.364 39.9873 325.955 40.335C328.099 41.6025 327.205 44.3709 330.489 48.2528C332.93 51.1354 335.692 52.2886 336.74 52.8342C340.891 55.0086 344.267 61.421 346.56 69.6202C346.577 69.6819 346.595 69.7434 346.612 69.8095C348.028 74.9456 349.028 80.7771 349.523 86.6922C349.734 89.1965 349.856 91.714 349.883 94.2049C349.905 96.1942 349.861 97.9196 349.769 99.4555Z" fill="#2B8FBA"/>
<path d="M320.607 129.115L319.814 131.333L319.314 132.724L318.156 135.958L316.815 139.699H308.192L309.639 135.958L310.309 134.216L311.423 131.333L313.29 126.492L320.607 129.115Z" fill="#FFB6B6"/>
<path d="M346.696 68.8631C346.674 69.1493 346.643 69.4661 346.612 69.8095C346.271 73.304 345.464 79.558 344.285 86.6922C343.662 90.4551 342.934 94.4647 342.114 98.4476C340.352 107.043 338.16 115.507 335.683 121.069C335.241 122.073 334.785 122.98 334.32 123.781C333.965 124.392 333.592 124.995 333.202 125.589C331.939 127.539 330.523 129.388 329.055 131.113C328.998 131.188 328.932 131.258 328.866 131.333C328.63 131.614 328.384 131.892 328.139 132.169C326.937 133.529 325.71 134.797 324.522 135.958C323.075 137.376 321.681 138.63 320.432 139.699H306.429L306.372 139.673L304.356 138.775C304.356 138.775 304.93 138.097 305.89 136.817C306.088 136.557 306.298 136.271 306.526 135.958C306.807 135.576 307.109 135.153 307.433 134.695C308.108 133.736 308.876 132.609 309.7 131.333C311.296 128.864 313.115 125.827 314.952 122.311C315.163 121.901 315.377 121.488 315.592 121.069C315.596 121.056 315.605 121.043 315.609 121.03C315.973 120.317 316.333 119.582 316.692 118.834C319.739 112.47 320.612 107.188 320.862 105.476C321.212 103.056 321.699 99.671 321.567 95.9477C321.479 93.492 321.124 90.8952 320.278 88.3162V88.3119C320.103 87.7705 319.906 87.2292 319.682 86.6922C319.283 85.7284 318.81 84.7776 318.248 83.8403C315.772 79.712 313.76 79.5403 312.159 75.0423C311.686 73.7088 310.612 70.6985 310.94 67.5208V67.5165C310.98 67.1248 311.046 66.7287 311.134 66.3324V66.3281C311.155 66.2181 311.186 66.1038 311.217 65.9937C311.467 65.0211 311.879 64.0571 312.506 63.1416C313.729 61.3637 315.399 60.3073 316.894 59.6781L316.899 59.6736C318.626 58.9519 320.116 58.7978 320.406 58.7714C326.81 58.1994 331.777 63.6038 334.491 66.557C335.539 67.6968 336.499 68.652 337.376 69.4308C344.201 75.5486 346.073 71.6402 346.56 69.6202C346.634 69.3077 346.674 69.0393 346.696 68.8631Z" fill="#2B8FBA"/>
<path d="M346.718 68.6344C346.718 68.6563 346.713 68.7311 346.696 68.8545C346.704 68.7883 346.709 68.7223 346.713 68.6606C346.713 68.6475 346.713 68.6387 346.718 68.6344Z" fill="#2B8FBA"/>
<path d="M311.901 161.503H76.9024C74.719 161.503 72.9393 163.285 72.9393 165.477C72.9393 167.673 74.719 169.455 76.9024 169.455H311.901C314.084 169.455 315.86 167.673 315.86 165.477C315.86 163.285 314.084 161.503 311.901 161.503Z" fill="#E6E6E6"/>
<path d="M259.75 182.047H129.049C126.865 182.047 125.09 183.83 125.09 186.021C125.09 188.213 126.865 190 129.049 190H259.75C261.933 190 263.713 188.213 263.713 186.021C263.713 183.83 261.933 182.047 259.75 182.047Z" fill="#E6E6E6"/>
<path d="M103.052 30.7701L117.862 24.5127L124.215 37.5865L108.651 43.9639L103.052 30.7701Z" fill="#FFB6B6"/>
<path opacity="0.1" d="M103.052 30.7701L117.862 24.5127L124.215 37.5865L108.651 43.9639L103.052 30.7701Z" fill="black"/>
<path d="M105.157 25.7882L119.768 42.6884C119.768 42.6884 109.604 74.8945 99.4401 77.7644C89.2761 80.6342 70.5364 94.6646 70.5364 94.6646L47.0323 79.3588L58.4667 62.4585C58.4667 62.4585 86.0999 24.5127 93.4053 24.5127C100.711 24.5127 105.157 25.7882 105.157 25.7882Z" fill="#2B8FBA"/>
<path d="M85.417 135.959H51.406L49.2557 133.073L40.4766 121.29L38.4565 118.58C38.4565 118.58 30.8335 104.55 32.4216 91.7948C34.0098 79.0399 50.5262 76.17 50.5262 76.17H51.2059L71.4258 94.0077L70.2188 110.608L76.6221 121.29L85.417 135.959Z" fill="#2F2E41"/>
<path d="M58.3715 135.959H49.2557V122.406L58.3715 135.959Z" fill="#2F2E41"/>
<path d="M254.986 115.385L253.853 121.29L251.038 135.959H194.505C194.946 132.671 195.55 127.939 196.194 122.831C196.258 122.32 196.325 121.807 196.388 121.29C198.005 108.449 199.774 93.9185 199.774 93.9185L207.206 94.8241L221.626 96.5779L227.502 97.2922L243.238 99.2086C251.083 100.162 256.479 107.592 254.986 115.385Z" fill="#F2F2F2"/>
<path d="M334.993 135.959H304.329C304.796 135.407 305.06 135.088 305.06 135.088L314.252 133.564L333.192 130.426C333.192 130.426 334.056 132.668 334.993 135.959Z" fill="#2F2E41"/>
<path d="M204.927 37.1481L218.262 56.0809L195.002 56.7782L192.505 38.9859L204.927 37.1481Z" fill="#A0616A"/>
<path opacity="0.1" d="M204.927 37.1481L218.262 56.0809L195.002 56.7782L192.505 38.9859L204.927 37.1481Z" fill="black"/>
<path d="M139.165 76.3754C137.454 71.4201 133.52 68.2897 130.379 69.3834C127.238 70.4771 126.08 75.3802 127.792 80.337C128.449 82.3265 129.571 84.1291 131.064 85.594L138.578 106.498L148.274 102.749L139.837 82.5394C140.106 80.4603 139.876 78.3467 139.165 76.3754Z" fill="#A0616A"/>
<path d="M229.43 66.7282L229.411 86.0231L227.623 93.1499L223.945 107.808L221.268 121.29L219.273 131.335L218.561 134.922C218.025 135.283 217.491 135.627 216.957 135.959H170.499C167.859 134.367 166.382 133.13 166.382 133.13C166.382 133.13 167.113 132.441 167.948 131.335C169.358 129.466 171.064 126.405 170.019 123.481C169.8 122.869 169.743 122.123 169.809 121.29C170.235 115.799 175.971 106.514 175.971 106.514L174.783 92.7322L174.263 86.6928L177.935 57.2447L189.906 50.2583L191.973 50.0575L212.374 48.951L220.806 49.4389L221.191 49.5441L229.43 66.7282Z" fill="#B4539A"/>
<path d="M230.336 135.959H220.172L219.724 131.335L219.714 131.242L222.592 131.045L230.078 130.531L230.209 133.299L230.31 135.423L230.336 135.959Z" fill="#FFB6B6"/>
<path d="M232.838 71.3933L237.107 96.5428L233.623 121.29L233.08 125.142L232.121 131.944L231.825 134.036L231.835 134.262L231.908 135.959H219.838L219.394 131.335L219.355 130.92L218.447 121.45L218.431 121.29L216.503 101.208L220.283 86.6928L220.562 85.6246V85.6214L222.207 60.7685L220.933 49.474L220.921 49.3688C220.946 49.3847 220.968 49.4007 220.994 49.4166C221.06 49.4581 221.127 49.4995 221.191 49.5442C228.61 54.2699 233.032 62.5606 232.838 71.3933Z" fill="#B4539A"/>
<path d="M182.259 62.0639L177.618 57.2444C177.618 57.2444 167.682 61.7413 167.187 64.2361C166.691 66.7309 149.149 103.373 149.149 103.373L141.516 82.9087L131.582 89.5678C131.582 89.5678 139.553 121.34 147.008 122.832C154.464 124.324 179.45 85.226 179.45 85.226L182.259 62.0639Z" fill="#B4539A"/>
<path d="M370.719 121.069H9.27638C4.16042 121.069 0 125.25 0 130.387C0 135.523 4.16041 139.699 9.27638 139.699H370.719C375.835 139.699 380 135.523 380 130.387C380 125.25 375.835 121.069 370.719 121.069Z" fill="#E6E6E6"/>
<path d="M227.314 92.6787L226.612 125.6C226.544 128.787 223.951 131.335 220.776 131.335H160.452C157.352 131.335 154.793 128.902 154.624 125.795L152.831 92.8731C152.648 89.5158 155.31 86.6929 158.66 86.6929H221.478C224.751 86.6929 227.385 89.3938 227.314 92.6787Z" fill="#3F3D56"/>
<path d="M129.932 38.7171C137.903 38.7171 144.364 32.23 144.364 24.2277C144.364 16.2255 137.903 9.7384 129.932 9.7384C121.961 9.7384 115.499 16.2255 115.499 24.2277C115.499 32.23 121.961 38.7171 129.932 38.7171Z" fill="#FFB6B6"/>
<path d="M105.793 62.1396L107.381 79.3587L118.18 123.044L108.85 126.327L93.0876 78.721L90.9105 59.5886L105.793 62.1396Z" fill="#FFB6B6"/>
<path d="M101.497 92.6787L100.794 125.6C100.726 128.787 98.1332 131.335 94.9581 131.335H34.6346C31.5346 131.335 28.9752 128.902 28.806 125.795L27.0133 92.8731C26.8305 89.5158 29.4928 86.6929 32.8419 86.6929H95.6608C98.9336 86.6929 101.567 89.3938 101.497 92.6787Z" fill="#3F3D56"/>
<path d="M119.899 131.557C126.194 131.557 131.298 129.291 131.298 126.496C131.298 123.701 126.194 121.435 119.899 121.435C113.604 121.435 108.501 123.701 108.501 126.496C108.501 129.291 113.604 131.557 119.899 131.557Z" fill="#FFB6B6"/>
<path d="M83.4001 64.7722L89.9114 29.9335C89.9114 29.9335 108.016 27.3825 108.651 33.4411C109.286 39.4997 108.197 69.1088 108.197 69.1088L83.4001 64.7722Z" fill="#2B8FBA"/>
<path d="M124.106 26.5059C124.106 26.5059 133.034 23.307 136.8 21.5859C140.566 19.8647 148.048 31.8697 148.214 25.5295C148.38 19.1892 145.795 16.5304 145.795 16.5304C145.795 16.5304 145.15 2.66018 131.23 4.39428C131.23 4.39428 134.292 -2.54514 124.242 -3.61819C114.192 -4.69125 98.5573 19.673 99.9575 23.3142C101.358 26.9553 103.036 29.9655 99.0637 33.8587C95.0911 37.7518 87.6523 59.7238 93.312 65.6363C98.9718 71.5488 99.3432 74.1144 95.4654 77.7927C91.5875 81.4711 82.4214 89.4691 92.3321 90.8576C102.243 92.2461 91.4254 91.209 98.8139 84.6844C106.203 78.1598 116.984 78.4263 112.958 67.9581C108.933 57.4899 115.927 42.4891 115.052 40.2134C114.176 37.9377 117.012 23.4869 117.012 23.4869C117.012 23.4869 123.612 22.5134 124.106 26.5059Z" fill="#2F2E41"/>
<path d="M197.797 44.0007C206.474 44.0007 213.508 36.939 213.508 28.228C213.508 19.517 206.474 12.4553 197.797 12.4553C189.12 12.4553 182.086 19.517 182.086 28.228C182.086 36.939 189.12 44.0007 197.797 44.0007Z" fill="#A0616A"/>
<path d="M199.051 7.02276C198.596 7.28918 197.988 6.8861 197.842 6.3783C197.696 5.87049 197.866 5.33135 198.034 4.83065L198.882 2.31005C199.483 0.522382 200.121 -1.32775 201.423 -2.6884C203.388 -4.74207 206.512 -5.26452 209.323 -4.88602C212.934 -4.39996 216.496 -2.43721 218.175 0.808455C219.854 4.05412 219.139 8.58299 216.105 10.608C220.429 15.5827 221.936 21.1269 221.698 27.7247C221.46 34.3224 214.298 40.3944 209.628 45.0423C208.585 44.4075 207.637 41.4329 208.21 40.3523C208.784 39.2717 207.962 38.0198 208.672 37.0244C209.382 36.029 209.977 37.6139 209.259 36.6242C208.806 35.9997 210.574 34.563 209.901 34.1892C206.643 32.3812 205.559 28.3044 203.513 25.1824C201.045 21.4167 196.821 18.8666 192.35 18.4435C189.888 18.2105 187.287 18.6326 185.268 20.0678C183.25 21.5031 181.943 24.0678 182.411 26.5061C181.199 25.2705 180.596 23.4596 180.823 21.7404C181.051 20.0213 182.105 18.4315 183.596 17.5566C182.689 14.5456 183.466 11.0821 185.571 8.75205C187.676 6.42204 196.216 6.81888 199.289 7.43211L199.051 7.02276Z" fill="#2F2E41"/>
<path d="M199.528 18.5349C203.599 18.976 206.538 22.5158 209.019 25.7847C210.45 27.6688 211.948 29.7496 211.912 32.1183C211.876 34.5131 210.281 36.5672 209.519 38.8368C208.273 42.5465 209.487 46.9601 212.453 49.502C209.522 50.0603 206.354 47.8543 205.848 44.9031C205.259 41.4676 207.854 38.1518 207.546 34.6794C207.276 31.6202 204.874 29.2658 202.833 26.9784C200.791 24.6911 198.874 21.6558 199.813 18.7329L199.528 18.5349Z" fill="#2F2E41"/>
<path d="M260.38 123.063C256.348 125.365 254.263 129.32 255.723 131.895C257.183 134.471 261.634 134.692 265.667 132.389C267.291 131.491 268.676 130.215 269.708 128.67L286.668 118.699L281.838 110.808L265.631 121.476C263.78 121.576 261.979 122.12 260.38 123.063Z" fill="#FFB6B6"/>
<path d="M317.803 49.9441C317.297 49.7424 312.849 48.0517 308.79 50.2839C304.126 52.8482 303.406 58.7017 303.153 60.7548C302.569 65.4975 304.289 66.5605 304.652 71.3619C305.331 80.3447 307.121 70.097 304.262 74.1973C303.272 75.6166 293.163 97.6105 287.588 101.918C276.745 110.297 269.86 116.198 269.86 116.198L277.72 124.77C277.72 124.77 290.141 121.447 301.12 114.291C312.381 106.95 318.012 103.279 322.368 96.0986C322.743 95.4802 331.719 80.177 326.899 63.2554C325.799 59.3956 323.784 52.3236 317.803 49.9441Z" fill="#2B8FBA"/>
<path d="M358.393 92.6787L357.69 125.6C357.622 128.787 355.029 131.335 351.854 131.335H291.531C288.43 131.335 285.871 128.902 285.702 125.795L283.909 92.8731C283.726 89.5158 286.389 86.6929 289.738 86.6929H352.557C355.83 86.6929 358.463 89.3938 358.393 92.6787Z" fill="#3F3D56"/>
</g>
<defs>
<clipPath id="clip0_49_110">
<rect width="380" height="195" fill="white"/>
</clipPath>
</defs>
</svg>
